<?xml version="1.0" ?><!DOCTYPE svg  PUBLIC '-//W3C//DTD SVG 1.1//EN'  'http://www.w3.org/Graphics/SVG/1.1/DTD/svg11.dtd'><svg enable-background="new 0 0 512 512" height="512px" id="Responsive_Design" version="1.1" viewBox="0 0 512 512" width="512px" xml:space="preserve" xmlns="http://www.w3.org/2000/svg" xmlns:xlink="http://www.w3.org/1999/xlink"><path d="M256,0c141.355,0,256,114.645,256,256S397.355,512,256,512S0,397.355,0,256S114.645,0,256,0  z" fill="#CCFFCC" id="Background"/><g id="Responsive_Design_1_"><path d="M427.067,418.962c0,0.603,0,0.9,0,1.503c0,16.205-39.917,29.112-89.135,29.112   c-49.222,0-89.138-12.907-89.138-29.112c0-0.603,0-0.9,0.301-1.503c-0.301-0.297-0.301-0.899-0.301-1.497   c0-15.908,39.916-29.113,89.138-29.113c49.218,0,89.135,13.205,89.135,29.113C427.067,418.063,427.067,418.665,427.067,418.962z" fill="#757575"/><path d="M427.067,418.962c0,0.603,0,0.9,0,1.503c0,16.205-39.917,29.112-89.135,29.112c-2.1,0-4.2,0-6.305,0   v-60.925c2.104-0.301,4.205-0.301,6.305-0.301c49.218,0,89.135,13.205,89.135,29.113   C427.067,418.063,427.067,418.665,427.067,418.962z" fill="#696969"/><path d="M331.628,388.652c2.104-0.301,4.205-0.301,6.305-0.301c47.716,0,86.432,12.306,89.135,27.61   c-2.703,15.306-41.419,27.311-89.135,27.311c-2.1,0-4.2,0-6.305,0V388.652z" fill="#757575"/><ellipse cx="337.933" cy="414.161" fill="#8D8D8D" rx="89.135" ry="29.111"/><path d="M337.933,385.352c49.218,0,89.135,12.903,89.135,28.812c0,16.205-39.917,29.109-89.135,29.109   c-2.1,0-4.2,0-6.305,0v-57.921C333.732,385.352,335.833,385.352,337.933,385.352z" fill="#7F7F7F"/><polygon fill="#CCCCCC" points="305.82,329.527 370.343,329.527 370.343,406.958 305.82,406.958  "/><polygon fill="#B8B8B8" points="370.343,371.247 370.343,406.958 331.628,406.958 331.628,371.247  "/><polygon fill="#B8B8B8" points="310.619,334.632 366.745,334.632 366.745,402.159 310.619,402.159  "/><polygon fill="#A6A6A6" points="366.745,371.247 366.745,402.159 331.628,402.159 331.628,371.247  "/><path d="M176.469,148.257h324.427c3.301,0,6.004,2.701,6.004,6.002v210.983c0,3.302-2.703,6.005-6.004,6.005   H176.469c-3.301,0-6-2.703-6-6.005V154.259C170.469,150.958,173.167,148.257,176.469,148.257z" fill="#A9ABAE"/><path d="M189.373,156.962h304.322c2.397,0,4.498,2.1,4.498,4.801v191.174c0,2.703-2.101,4.803-4.498,4.803h-309.72   c-2.703,0-4.803-2.1-4.803-4.803V167.165C179.171,161.462,183.674,156.962,189.373,156.962z" fill="#669999"/><path d="M338.833,358.941c2.486,0,4.502,2.015,4.502,4.502c0,2.483-2.016,4.502-4.502,4.502   c-2.487,0-4.503-2.019-4.503-4.502C334.33,360.956,336.346,358.941,338.833,358.941z" fill="#CCCCCC"/><circle cx="338.833" cy="363.444" fill="#B3B3B3" r="3.301"/><path d="M198.376,163.264h285.711c2.401,0,4.201,1.801,4.201,4.201v179.77c0,2.401-1.8,4.205-4.201,4.205H193.276   c-2.402,0-4.205-1.804-4.205-4.205V172.567C189.071,167.464,193.276,163.264,198.376,163.264z" fill="#336666"/><rect fill="#E6E6E6" height="156.362" width="191.176" x="217.586" y="185.772"/><rect fill="#66FFCC" height="156.445" width="16.355" x="193.875" y="185.473"/><rect fill="#E6E6E6" height="154.857" width="39.615" x="414.46" y="186.674"/><rect fill="#E6E6E6" height="156.445" width="16.356" x="463.079" y="185.473"/><rect fill="#CCCCCC" height="44.117" width="34.213" x="417.465" y="189.975"/><rect fill="#CCCCCC" height="25.219" width="34.192" x="417.465" y="238.894"/><rect fill="#CCCCCC" height="16.006" width="34.192" x="417.465" y="270.707"/><rect fill="#CCCCCC" height="44.419" width="34.213" x="417.465" y="292.313"/><path d="M464.883,189.975h5.101v5.1h-5.101V189.975z M472.385,332.531h5.101v5.101h-5.101V332.531z    M464.883,332.531h5.101v5.101h-5.101V332.531z M472.385,325.628h5.101v5.401h-5.101V325.628z M464.883,325.628h5.101v5.401h-5.101   V325.628z M472.385,319.025h5.101v5.101h-5.101V319.025z M464.883,319.025h5.101v5.101h-5.101V319.025z M472.385,312.121h5.101   v5.101h-5.101V312.121z M464.883,312.121h5.101v5.101h-5.101V312.121z M472.385,305.218h5.101v5.401h-5.101V305.218z    M464.883,305.218h5.101v5.401h-5.101V305.218z M472.385,298.615h5.101v5.104h-5.101V298.615z M464.883,298.615h5.101v5.104h-5.101   V298.615z M472.385,291.716h5.101v5.401h-5.101V291.716z M464.883,291.716h5.101v5.401h-5.101V291.716z M472.385,284.812h5.101   v5.401h-5.101V284.812z M464.883,284.812h5.101v5.401h-5.101V284.812z M472.385,278.209h5.101v5.101h-5.101V278.209z    M464.883,278.209h5.101v5.101h-5.101V278.209z M472.385,271.306h5.101v5.401h-5.101V271.306z M464.883,271.306h5.101v5.401h-5.101   V271.306z M472.385,264.703h5.101v5.101h-5.101V264.703z M464.883,264.703h5.101v5.101h-5.101V264.703z M472.385,257.799h5.101   v5.104h-5.101V257.799z M464.883,257.799h5.101v5.104h-5.101V257.799z M472.385,250.897h5.101v5.404h-5.101V250.897z    M464.883,250.897h5.101v5.404h-5.101V250.897z M472.385,244.295h5.101v5.103h-5.101V244.295z M464.883,244.295h5.101v5.103h-5.101   V244.295z M472.385,237.393h5.101v5.402h-5.101V237.393z M464.883,237.393h5.101v5.402h-5.101V237.393z M472.385,230.49h5.101   v5.401h-5.101V230.49z M464.883,230.49h5.101v5.401h-5.101V230.49z M472.385,223.887h5.101v5.103h-5.101V223.887z M464.883,223.887   h5.101v5.103h-5.101V223.887z M472.385,216.985h5.101v5.402h-5.101V216.985z M464.883,216.985h5.101v5.402h-5.101V216.985z    M472.385,210.383h5.101v5.101h-5.101V210.383z M464.883,210.383h5.101v5.101h-5.101V210.383z M472.385,203.479h5.101v5.103h-5.101   V203.479z M464.883,203.479h5.101v5.103h-5.101V203.479z M472.385,196.577h5.101v5.402h-5.101V196.577z M464.883,196.577h5.101   v5.402h-5.101V196.577z M472.385,189.975h5.101v5.1h-5.101V189.975z" fill="#33CC99"/><rect fill="#999999" height="12.92" width="271.692" x="202.879" y="166.565"/><circle cx="211.883" cy="173.167" fill="#B3B3B3" r="3.301"/><path d="M228.69,169.866c1.819,0,3.301,1.478,3.301,3.301s-1.482,3.301-3.301,3.301   c-1.824,0-3.301-1.478-3.301-3.301S226.867,169.866,228.69,169.866z" fill="#B3B3B3"/><path d="M245.498,169.866c1.823,0,3.297,1.478,3.297,3.301s-1.474,3.301-3.297,3.301   c-1.824,0-3.306-1.478-3.306-3.301S243.674,169.866,245.498,169.866z" fill="#B3B3B3"/><path d="M262.004,169.866c1.819,0,3.302,1.478,3.302,3.301s-1.482,3.301-3.302,3.301   c-1.823,0-3.301-1.478-3.301-3.301S260.181,169.866,262.004,169.866z" fill="#B3B3B3"/><circle cx="278.808" cy="173.167" fill="#B3B3B3" r="3.301"/><circle cx="295.615" cy="173.167" fill="#B3B3B3" r="3.301"/><circle cx="312.423" cy="173.167" fill="#B3B3B3" r="3.301"/><circle cx="329.23" cy="173.167" fill="#B3B3B3" r="3.301"/><circle cx="345.736" cy="173.167" fill="#B3B3B3" r="3.301"/><path d="M362.54,169.866c1.823,0,3.301,1.478,3.301,3.301s-1.478,3.301-3.301,3.301   c-1.819,0-3.302-1.478-3.302-3.301S360.721,169.866,362.54,169.866z" fill="#B3B3B3"/><circle cx="379.348" cy="173.167" fill="#B3B3B3" r="3.301"/><circle cx="396.155" cy="173.167" fill="#B3B3B3" r="3.301"/><circle cx="412.661" cy="173.167" fill="#B3B3B3" r="3.301"/><circle cx="429.469" cy="173.167" fill="#B3B3B3" r="3.301"/><path d="M446.276,169.866c1.819,0,3.301,1.478,3.301,3.301s-1.481,3.301-3.301,3.301   c-1.824,0-3.302-1.478-3.302-3.301S444.452,169.866,446.276,169.866z" fill="#B3B3B3"/><circle cx="463.079" cy="173.167" fill="#B3B3B3" r="3.301"/><polygon fill="#FFCC00" points="313.322,217.885 333.13,229.289 352.938,240.694 352.938,263.804 352.938,286.912 333.13,298.318    313.322,309.72 293.515,298.318 273.707,286.912 273.707,263.804 273.707,240.694 293.515,229.289  "/><polygon fill="#FFAB00" points="313.322,217.885 333.13,229.289 352.938,240.694 352.938,261.401 273.707,261.401 273.707,240.694    293.515,229.289  "/><path d="M313.021,197.477L313.021,197.477h-0.297h-0.603h-0.301c-0.599,0-1.201-0.601-1.201-1.201   c0-0.9,0.603-1.201,1.201-1.5h0.301h0.603h0.297l0,0h0.603h0.302h0.599l0.301,0.299h0.599h0.301c0.599,0,1.201,0.601,1.201,1.201   c-0.302,0.6-0.603,1.201-1.502,1.201h-0.302h-0.297h-0.301h-0.599h-0.302H313.021z M304.318,195.376c0.603,0,1.2,0.601,1.502,1.201   c0,0.601-0.603,1.201-1.201,1.201l0,0l-0.301,0.299h-0.599h-0.302h-0.301h-0.599l-0.301,0.299c-0.599,0-1.201-0.598-1.201-1.199   c-0.301-0.601,0.302-1.201,0.899-1.201l0.302-0.301h0.301h0.599h0.301l0.599-0.299H304.318L304.318,195.376z M294.716,197.477   c0.598-0.299,1.2,0.301,1.502,0.899c0,0.601-0.302,1.201-0.904,1.502h-0.297h-0.301l-0.603,0.299h-0.298l-0.301,0.301h-0.599l0,0   c-0.603,0.299-1.2,0-1.502-0.601c-0.301-0.901,0-1.502,0.899-1.801l0,0h0.302l0.599-0.299h0.301h0.301l0.599-0.301H294.716z    M285.113,200.778c0.598-0.299,1.498,0,1.799,0.601c0.301,0.6,0,1.5-0.603,1.801h-0.297l-0.603,0.299h-0.297l-0.302,0.301   l-0.301,0.299h-0.599l0,0c-0.603,0.301-1.201,0-1.502-0.601c-0.302-0.6,0-1.201,0.603-1.5l0,0l0.297-0.301h0.302l0.598-0.299   l0.302-0.299h0.301L285.113,200.778z M276.41,205.58c0.599-0.299,1.196-0.299,1.799,0.301c0.302,0.6,0,1.5-0.603,1.801   l-0.297,0.299h-0.301l-0.302,0.299l-0.297,0.301l-0.302,0.299h-0.301l0,0c-0.599,0.6-1.502,0.301-1.799-0.299   c-0.302-0.301-0.302-1.201,0.297-1.5v-0.301h0.301l0.603-0.299l0.297-0.301l0.302-0.299h0.301L276.41,205.58z M268.306,211.582   c0.599-0.299,1.2-0.299,1.799,0c0.302,0.601,0.302,1.502,0,1.801l-0.301,0.301l-0.298,0.299h-0.301l-0.301,0.301l-0.298,0.299   l-0.301,0.299v0.301c-0.603,0.299-1.502,0.299-1.804-0.301c-0.599-0.299-0.599-1.199,0-1.5l0.302-0.299l0.301-0.301l0.302-0.299   l0.297-0.301l0.301-0.299h0.302V211.582z M261.401,218.785c0.302-0.601,1.201-0.601,1.502-0.299   c0.599,0.601,0.599,1.201,0.298,1.801l0,0l-0.298,0.299l-0.301,0.301l-0.301,0.299l-0.298,0.299l-0.301,0.301v0.299   c-0.603,0.6-1.201,0.6-1.804,0.301c-0.599-0.601-0.599-1.201-0.297-1.801l0.297-0.299l0.302-0.301l0.301-0.299l0.302-0.301v-0.299   l0.297-0.301H261.401z M255.397,226.588c0.301-0.299,0.904-0.601,1.502-0.299c0.603,0.299,0.899,1.201,0.603,1.801l-0.301,0.299   l-0.302,0.301l-0.301,0.299v0.299l-0.297,0.601L256,230.19l0,0c-0.301,0.601-0.899,0.601-1.498,0.299   c-0.603-0.299-0.904-0.9-0.603-1.5v-0.299l0.301-0.301l0.301-0.299v-0.301l0.297-0.299l0.301-0.301L255.397,226.588z    M250.598,235.592c0.297-0.601,0.9-0.9,1.502-0.601c0.598,0.301,0.896,0.899,0.598,1.5v0.301l-0.301,0.6v0.299l-0.297,0.301v0.299   l-0.301,0.601l0,0c-0.301,0.6-0.904,0.899-1.502,0.6c-0.598-0.301-0.899-0.899-0.899-1.5l0.301-0.301v-0.299l0.301-0.301v-0.299   l0.297-0.601v-0.301L250.598,235.592z M246.996,244.896c0.301-0.601,0.904-0.9,1.502-0.9c0.899,0.299,1.201,0.9,0.899,1.799l0,0   v0.301l-0.301,0.299v0.6v0.301l-0.301,0.299v0.301c0,0.899-0.896,1.199-1.498,0.899c-0.602,0-0.903-0.6-0.903-1.5v-0.301   l0.301-0.299v-0.601l0.301-0.301v-0.299V244.896L246.996,244.896z M245.197,254.799c0-0.601,0.598-1.201,1.197-1.201   c0.602,0.301,1.205,0.902,1.205,1.502v0.299l-0.301,0.299v0.603v0.297v0.603v0.301l0,0c0,0.599-0.602,1.201-1.502,1.201   c-0.598,0-1.201-0.603-0.899-1.502l0,0v-0.302v-0.598V256v-0.601v-0.299L245.197,254.799z M244.594,264.703   c0-0.599,0.301-1.201,1.201-1.201c0.599,0,1.201,0.603,1.201,1.201v0.603v0.297v0.301v0.599v0.302v0.301   c0,0.899-0.602,1.502-1.201,1.502c-0.598,0-1.201-0.603-1.201-1.2v-0.302v-0.603v-0.297v-0.603v-0.297V264.703z M245.197,274.908   c0-0.603,0.598-1.502,1.197-1.502c0.602,0,1.205,0.301,1.506,0.899v0.603v0.301v0.599v0.301l0.297,0.302v0.297   c0,0.899-0.297,1.502-0.9,1.502c-0.602,0.302-1.502-0.301-1.502-0.899v-0.301l-0.297-0.599v-0.302v-0.301v-0.599L245.197,274.908z    M247.598,284.511c-0.301-0.599,0.301-1.201,0.9-1.498c0.598,0,1.201,0.297,1.502,0.899v0.297l0.297,0.302v0.301v0.302l0.301,0.598   v0.302v0.297c0.297,0.603,0,1.201-0.598,1.502c-0.603,0.302-1.205-0.301-1.502-0.899l0,0l-0.301-0.603v-0.297l-0.297-0.302v-0.598   l-0.301-0.302V284.511z M251.197,293.815c-0.301-0.602,0-1.2,0.603-1.502c0.598-0.301,1.498,0,1.799,0.603v0.298l0.301,0.301v0.301   l0.301,0.298l0.301,0.301v0.603l0,0c0.297,0.599,0.297,1.498-0.301,1.799c-0.603,0.302-1.502,0-1.803-0.598v-0.302l-0.297-0.301   v-0.302l-0.301-0.297l-0.301-0.603v-0.301L251.197,293.815z M256.301,302.519c-0.301-0.301-0.301-1.2,0.297-1.502   c0.603-0.599,1.502-0.301,1.803,0.302l0,0l0.302,0.301l0.297,0.599v0.301l0.301,0.302l0.302,0.297l0,0   c0.599,0.603,0.297,1.502,0,1.804c-0.603,0.297-1.502,0.297-1.804-0.302h-0.297v-0.603l-0.301-0.297l-0.302-0.302l-0.301-0.301   l-0.297-0.297V302.519z M262.603,310.619c-0.599-0.599-0.599-1.498,0-1.799c0.599-0.599,1.201-0.599,1.799,0l0,0l0.302,0.301   l0.301,0.302l0.302,0.297l0.297,0.301l0.301,0.302v0.297c0.599,0.603,0.599,1.201,0,1.804c-0.301,0.301-1.2,0.301-1.799,0v-0.302   l-0.301-0.301l-0.302-0.297l-0.301-0.302l-0.298-0.301L262.603,310.619L262.603,310.619z M269.804,317.523   c-0.599-0.599-0.599-1.201-0.298-1.8c0.599-0.603,1.201-0.603,1.8-0.301l0.301,0.301l0.302,0.302l0.297,0.297h0.301l0.302,0.301   l0.297,0.302l0,0c0.603,0.599,0.904,1.2,0.302,1.799c-0.302,0.603-1.201,0.603-1.498,0.302h-0.302l-0.301-0.302l-0.302-0.301   l-0.297-0.298l-0.301-0.301l-0.302-0.301H269.804z M277.908,323.226c-0.599-0.301-0.599-1.2-0.302-1.799   c0.302-0.603,0.904-0.603,1.502-0.301h0.302l0.297,0.301l0.603,0.297h0.302l0.297,0.302l0.301,0.301l0,0   c0.603,0.302,0.899,0.899,0.603,1.498c-0.301,0.603-1.2,0.903-1.803,0.603l0,0l-0.302-0.301l-0.297-0.302h-0.603l-0.297-0.297   l-0.302-0.302H277.908z M286.912,327.729c-0.603-0.302-0.899-0.9-0.603-1.8c0.302-0.603,0.903-0.903,1.502-0.603l0.302,0.302h0.301   l0.297,0.301h0.603l0.302,0.297h0.297h0.301c0.599,0.302,0.9,0.904,0.599,1.503c-0.297,0.899-0.899,1.2-1.498,0.899h-0.301   l-0.302-0.302h-0.297l-0.603-0.297h-0.301l-0.298-0.301H286.912z M296.515,330.729c-0.899,0-1.201-0.599-0.899-1.498   c0-0.603,0.603-0.904,1.502-0.904l0.297,0.302h0.302h0.301l0.599,0.301h0.301h0.302c0.899,0.302,1.2,0.899,1.2,1.502   c-0.301,0.599-0.899,1.197-1.502,0.899h-0.598h-0.302l-0.301-0.301h-0.599h-0.302L296.515,330.729z M306.121,332.531   c-0.603,0-0.903-0.603-0.903-1.201c0-0.899,0.603-1.2,1.2-1.2h0.302h0.599h0.301h0.302h0.598h0.302l0,0   c0.603,0.301,1.2,0.899,1.2,1.498c0,0.603-0.598,1.2-1.2,1.2l0,0h-0.599l-0.301-0.297h-0.603h-0.298h-0.603H306.121z    M316.322,332.828c-0.899,0-1.201-0.598-1.498-1.2c0-0.599,0.599-1.197,1.201-1.197h0.598h0.302l0.297-0.301h0.603h0.301h0.298   c0.903,0,1.502,0.599,1.502,1.2c0,0.599-0.599,1.201-1.201,1.201h-0.301l-0.599,0.297h-0.301h-0.599h-0.302H316.322z    M326.226,331.628c-0.598,0-1.498-0.298-1.498-0.899c0-0.599,0.298-1.498,0.9-1.498h0.301l0.599-0.302h0.301h0.302h0.599   l0.301-0.301c0.599,0,1.201,0.301,1.498,0.899c0,0.903-0.297,1.502-0.899,1.502l-0.302,0.301h-0.598h-0.302h-0.599l-0.301,0.298   H326.226z M335.833,328.929c-0.603,0.302-1.503,0-1.503-0.603c-0.301-0.598,0-1.498,0.599-1.498l0.302-0.301h0.301l0.302-0.302   h0.297h0.603l0.301-0.297h0.297c0.603-0.301,1.201,0,1.503,0.599c0.301,0.603,0,1.502-0.603,1.502l-0.298,0.297h-0.603   l-0.297,0.302h-0.301l-0.302,0.301H335.833L335.833,328.929z M344.833,325.025c-0.599,0.301-1.197,0-1.498-0.599   c-0.302-0.603,0-1.201,0.599-1.502v-0.297h0.301l0.301-0.302h0.599l0.302-0.301l0.301-0.302h0.297   c0.603-0.297,1.201-0.297,1.502,0.302c0.302,0.603,0.302,1.502-0.301,1.799h-0.297l-0.302,0.302l-0.603,0.301h-0.297l-0.301,0.301   l-0.302,0.298H344.833z M353.54,319.623c-0.603,0.603-1.502,0.302-1.804-0.297c-0.297-0.301-0.297-1.201,0.302-1.502v-0.301h0.301   l0.297-0.302l0.302-0.297l0.301-0.302l0.302-0.301h0.297c0.603-0.599,1.502-0.297,1.804,0c0.297,0.603,0.297,1.502-0.302,1.803   l-0.301,0.298l-0.302,0.301l-0.297,0.302h-0.302l-0.301,0.301L353.54,319.623L353.54,319.623z M361.042,313.322   c-0.603,0.301-1.201,0.301-1.804,0c-0.297-0.599-0.297-1.502,0-1.799l0.302-0.302l0.301-0.301l0.302-0.302l0.297-0.297l0.301-0.302   l0.302-0.301l0,0c0.599-0.599,1.2-0.599,1.799,0c0.302,0.301,0.302,1.201,0,1.804l0,0l-0.301,0.297l-0.298,0.301l-0.301,0.302   l-0.301,0.301l-0.302,0.297L361.042,313.322z M367.645,305.82c-0.302,0.301-1.201,0.598-1.804,0c-0.297-0.302-0.599-1.201,0-1.502   v-0.302l0.302-0.297l0.301-0.302v-0.301l0.302-0.297l0.297-0.302v-0.301c0.603-0.599,1.201-0.599,1.803-0.302   c0.599,0.302,0.599,1.201,0.298,1.804l0,0l-0.298,0.297l-0.301,0.603l-0.301,0.302l-0.298,0.297v0.301L367.645,305.82z    M373.046,297.414c-0.301,0.603-0.899,0.603-1.502,0.302c-0.599-0.302-0.899-0.9-0.599-1.498v-0.302l0.302-0.301l0.297-0.302   v-0.297l0.301-0.603l0.302-0.301v-0.298c0.297-0.602,0.899-0.602,1.498-0.301c0.603,0.301,0.903,0.899,0.603,1.502v0.297   l-0.302,0.302v0.301l-0.301,0.599l-0.297,0.301v0.302L373.046,297.414z M377.247,288.113c0,0.598-0.899,0.899-1.502,0.899   c-0.599-0.302-0.899-1.201-0.599-1.8l0,0v-0.301l0.301-0.603v-0.297l0.298-0.302v-0.598l0,0c0.301-0.603,0.903-1.201,1.803-0.904   c0.599,0.302,0.899,0.904,0.599,1.502v0.302l-0.297,0.297v0.603l-0.302,0.301v0.298v0.603H377.247z M380.247,278.511   c-0.297,0.598-0.899,1.196-1.498,0.899c-0.603,0-1.201-0.603-0.899-1.502v-0.302v-0.297l0.297-0.301v-0.599v-0.302v-0.301v-0.302   c0.301-0.598,0.899-0.899,1.502-0.899c0.599,0.302,1.201,0.899,0.899,1.502l0,0v0.302v0.599v0.301l-0.301,0.599v0.301V278.511z    M381.447,268.606c0,0.599-0.598,1.197-1.2,1.197c-0.599,0-1.201-0.599-1.201-1.498l0,0v-0.603v-0.297v-0.603l0.302-0.302v-0.599   l0,0c0-0.598,0.603-1.2,1.2-1.2c0.603,0,1.201,0.603,1.201,1.502l0,0v0.297v0.603v0.302v0.598l-0.302,0.302V268.606z    M381.447,258.703c0,0.598-0.297,1.196-1.2,1.196c-0.599,0-1.201-0.599-1.201-1.196v-0.302v-0.603v-0.297v-0.301l-0.297-0.603   v-0.297c0-0.603,0.599-1.201,1.201-1.201c0.598-0.301,1.2,0.299,1.2,0.899l0.297,0.301v0.598v0.302v0.598v0.302V258.703z    M379.95,248.498c0.297,0.899-0.302,1.5-0.904,1.5c-0.599,0.299-1.196-0.301-1.498-0.902v-0.299v-0.299l-0.301-0.301v-0.601v-0.299   l-0.302-0.301v-0.299c0-0.601,0.302-1.201,0.904-1.5c0.598,0,1.498,0.299,1.498,0.899l0,0l0.301,0.601v0.299v0.601l0.302,0.301   v0.299V248.498z M377.247,238.894c0,0.899-0.302,1.5-0.899,1.801c-0.603,0.299-1.201-0.301-1.502-0.901l0,0l-0.298-0.299v-0.301   l-0.301-0.299v-0.601l-0.302-0.299v-0.301c-0.301-0.6,0-1.5,0.603-1.5c0.599-0.301,1.498,0,1.498,0.601l0.302,0.299v0.301   l0.301,0.299l0.297,0.601v0.301L377.247,238.894L377.247,238.894z M372.745,229.889c0.301,0.601,0.301,1.502-0.302,1.801   c-0.599,0.301-1.498,0-1.799-0.601l0,0v-0.299l-0.302-0.301l-0.297-0.299l-0.301-0.301v-0.601l-0.302-0.299   c-0.301-0.601,0-1.201,0.302-1.5c0.598-0.601,1.502-0.301,1.799,0.299l0.301,0.301l0.302,0.299v0.301l0.297,0.598l0.302,0.301   V229.889L372.745,229.889z M367.343,221.485c0.302,0.601,0.302,1.502-0.301,1.801c-0.599,0.301-1.201,0.301-1.8-0.299v-0.301   l-0.301-0.299l-0.297-0.301l-0.302-0.299l-0.301-0.301v-0.299h-0.302c-0.297-0.6-0.297-1.201,0.302-1.801   c0.603-0.299,1.2-0.299,1.799,0.301l0,0l0.302,0.299l0.301,0.301v0.299l0.302,0.301l0.297,0.299L367.343,221.485z M360.74,213.983   c0.302,0.6,0.302,1.5,0,1.801c-0.598,0.6-1.2,0.6-1.799,0h-0.301l-0.302-0.301l-0.297-0.299l-0.302-0.301l-0.301-0.299v-0.299   h-0.302c-0.598-0.601-0.598-1.201,0-1.801c0.302-0.601,1.201-0.601,1.503,0h0.301l0.297,0.299l0.302,0.301l0.301,0.299l0.302,0.301   l0.297,0.299H360.74z M352.938,207.682c0.603,0.299,0.603,1.199,0.301,1.799c-0.301,0.601-1.2,0.601-1.799,0.301l0,0l-0.302-0.301   l-0.301-0.299l-0.302-0.301h-0.297l-0.603-0.299v-0.301c-0.598-0.299-0.899-1.199-0.598-1.5c0.598-0.601,1.2-0.899,1.799-0.601   l0.301,0.301l0.302,0.299h0.297l0.302,0.301l0.301,0.299L352.938,207.682L352.938,207.682z M344.535,202.58   c0.599,0.299,0.599,0.899,0.298,1.5c-0.298,0.6-0.899,0.899-1.498,0.6l0,0l-0.603-0.299h-0.297l-0.302-0.301h-0.301l-0.302-0.299   l-0.297-0.301c-0.603-0.299-0.899-0.899-0.603-1.5c0.301-0.6,0.899-0.899,1.502-0.6l0.302,0.299h0.297l0.603,0.301h0.301   l0.298,0.299l0.301,0.301H344.535z M335.23,198.678c0.603,0,0.899,0.9,0.603,1.5c0,0.601-0.904,0.902-1.503,0.601l0,0h-0.301   l-0.599-0.299h-0.301h-0.302l-0.297-0.301h-0.301c-0.9-0.299-1.201-0.899-0.9-1.5c0.298-0.6,0.9-1.201,1.498-0.899h0.302   l0.301,0.299h0.599l0.301,0.299h0.302L335.23,198.678L335.23,198.678z M325.628,195.977c0.598,0.299,0.899,0.899,0.899,1.5   s-0.899,1.201-1.502,0.899h-0.298h-0.301h-0.301l-0.599-0.299h-0.302h-0.598l0,0c-0.603,0-0.904-0.601-0.904-1.5   c0-0.6,0.603-0.901,1.201-0.901h0.301h0.302h0.297l0.603,0.301h0.301h0.599H325.628z" fill="#CCCCCC"/><path d="M500.896,143.155H176.469c-6.301,0-11.104,4.803-11.104,11.104v210.983c0,6.302,4.803,11.406,11.104,11.406   h123.949v6c-18.606,2.703-56.724,11.104-56.724,31.515c0,0.599,0,1.201,0,1.799c0,0.599,0,0.9,0,1.503c0,0.598,0,1.2,0,1.497   c0,0.603,0,0.9,0,1.503c0,13.506,16.808,21.31,27.611,24.907c18.606,6.603,40.515,9.005,60.322,9.306   c2.104,0.302,4.205,0.302,6.305,0.302c21.009,0,44.716-2.402,64.825-9.005c10.803-3.603,29.711-11.405,29.711-25.51   c0-0.603,0-0.9,0-1.503c0-0.297,0-0.899,0-1.497c0-0.603,0-0.904,0-1.503c0-0.598,0-1.2,0-1.799   c0-20.41-38.113-28.812-56.724-31.515v-6h125.15c6.301,0,11.104-5.104,11.104-11.406V154.259   C512,147.958,507.196,143.155,500.896,143.155z M506.899,365.242c0,3.302-2.703,6.005-6.004,6.005H370.343v15.903   c33.314,4.201,56.725,14.707,56.725,27.013c0,0.599,0,1.201,0,1.799c0,0.599,0,0.9,0,1.503c0,0.598,0,1.2,0,1.497   c0,0.603,0,0.9,0,1.503c0,16.205-39.917,29.112-89.135,29.112c-2.1,0-4.2,0-6.305,0c-46.218-1.2-82.833-13.808-82.833-29.112   c0-0.603,0-0.9,0.301-1.503c-0.301-0.297-0.301-0.899-0.301-1.497c0-0.603,0-0.904,0.301-1.503c-0.301-0.598-0.301-1.2-0.301-1.799   c0-12.306,23.711-22.812,57.025-27.013v-15.903H176.469c-3.301,0-6-2.703-6-6.005V154.259c0-3.301,2.699-6.002,6-6.002h324.427   c3.301,0,6.004,2.701,6.004,6.002V365.242z" fill="#4E5A62"/><path d="M124.849,122.148h94.837c13.205,0,24.008,10.803,24.008,24.008V363.74   c0,13.205-10.803,24.013-24.008,24.013h-94.837c-13.205,0-24.012-10.808-24.012-24.013V146.157   C100.837,132.952,111.645,122.148,124.849,122.148z" fill="#E6E6E6"/><path d="M126.95,138.354h90.933c9.004,0,16.51,7.203,16.51,16.506v186.073c0,9.306-7.506,16.507-16.51,16.507   H126.95c-9.004,0-16.506-7.201-16.506-16.507V154.86C110.443,145.557,117.946,138.354,126.95,138.354z" fill="#4E5A62"/><path d="M113.443,364.645h17.109c1.799,0,3,1.196,3,3l0,0c0,1.498-1.201,3-3,3h-17.109c-1.502,0-3-1.502-3-3l0,0   C110.443,365.841,111.941,364.645,113.443,364.645z" fill="#CCCCCC"/><path d="M164.762,364.645h18.912c2.699,0,4.799,2.101,4.799,4.799l0,0c0,2.401-2.1,4.804-4.799,4.804h-18.912   c-2.398,0-4.799-2.402-4.799-4.804l0,0C159.962,366.745,162.364,364.645,164.762,364.645z" fill="#7F8C8D"/><path d="M214.285,364.645h16.803c1.803,0,3.305,1.196,3.305,3l0,0c0,1.498-1.502,3-3.305,3h-16.803   c-1.799,0-3.004-1.502-3.004-3l0,0C211.28,365.841,212.485,364.645,214.285,364.645z" fill="#CCCCCC"/><path d="M147.958,126.648h48.92c1.799,0,3,1.201,3,3.002l0,0c0,1.801-1.201,3.002-3,3.002h-48.92   c-1.799,0-3.301-1.201-3.301-3.002l0,0C144.657,127.85,146.159,126.648,147.958,126.648z" fill="#FEFEFE"/><path d="M165.665,365.544h17.105c2.703,0,4.502,1.799,4.502,3.899l0,0c0,2.101-1.799,3.603-4.502,3.603h-17.105   c-2.401,0-4.201-1.502-4.201-3.603l0,0C161.464,367.343,163.264,365.544,165.665,365.544z" fill="#CCCCCC"/><path d="M145.255,487.092c0.301-9.903,0.904-19.812,2.401-28.812c4.804-33.013,25.812-57.322,33.314-66.029   c0,0,18.31-20.406,13.808-44.414c-4.201-21.31-8.104-56.423-6.306-76.531c2.402-28.511-19.209-46.218-24.31-4.804   c-5.101,43.218-25.209,138.657-63.025,77.732v-94.538c0,0-11.406-1.799-18.008,15.609c-6.301,17.405-48.619,39.013-48.318,55.519   c0.301,16.209,16.209,33.013,21.908,73.828c1.205,10.205,9.004,24.31,15.008,39.018   C92.736,455.577,117.648,473.586,145.255,487.092z" fill="#FED5A9"/><polygon fill="#E6E6E6" points="134.151,168.665 218.184,168.665 218.184,224.789 134.151,224.789  "/><polygon fill="#CCCCCC" points="176.167,203.18 197.18,185.772 218.184,168.665 176.167,168.665 134.151,168.665 155.163,185.772     "/><path d="M92.134,242.494v-96.337c0-18.006,14.707-32.713,32.715-32.713h94.837   c18.004,0,32.711,14.707,32.711,32.713V363.74c0,18.009-14.707,32.716-32.711,32.716h-30.615c-0.599,0.599-0.896,1.201-1.498,1.799   c-15.607,17.109-27.908,37.816-31.213,61.227c-1.498,10.2-2.402,20.707-2.402,31.51c-3-1.2-6-2.702-8.703-3.899   c0.301-9.903,0.904-19.812,2.401-28.812c4.804-33.013,25.812-57.322,33.314-66.029c0,0,1.498-1.498,3.599-4.498h35.117   c13.205,0,24.008-10.808,24.008-24.013V146.157c0-13.205-10.803-24.008-24.008-24.008h-94.837   c-13.205,0-24.012,10.803-24.012,24.008v103.54c-1.197,0-11.703-0.601-17.707,15.609c-6.301,17.405-48.619,39.013-48.318,55.519   c0.301,16.209,16.209,33.013,21.908,73.828c1.205,10.205,9.004,24.31,15.008,39.018c-6.904-6.904-13.205-14.406-19.209-22.21   c-2.101-5.101-3.9-10.502-4.502-15.606c-2.1-15.903-6.301-29.41-12.301-44.117c-3.904-9.603-9.305-20.406-9.606-30.912   c-0.301-14.406,18.008-28.209,27.912-36.615c5.402-4.502,18.606-15.305,21.008-21.907c2.703-7.502,7.205-14.706,14.703-18.607   C90.335,243.396,91.238,242.795,92.134,242.494z" fill="#4E5A62"/></g></svg>